<svg xmlns="http://www.w3.org/2000/svg" xmlns:xlink="http://www.w3.org/1999/xlink" viewBox="0 0 816.6 650.53"><defs><style>.cls-1{fill:url(#Degradado_sin_nombre_23);}.cls-2{isolation:isolate;}.cls-3{clip-path:url(#clip-path);}.cls-12,.cls-14,.cls-4{fill:none;}.cls-5,.cls-6{mix-blend-mode:color-burn;}.cls-5{opacity:0.3;fill:url(#Degradado_sin_nombre_25);}.cls-6{opacity:0.45;fill:url(#Degradado_sin_nombre_24);}.cls-11,.cls-13,.cls-14,.cls-7,.cls-8,.cls-9{mix-blend-mode:overlay;}.cls-11,.cls-13,.cls-14,.cls-7,.cls-8{opacity:0.6;}.cls-7{fill:url(#Degradado_sin_nombre_1532);}.cls-8{fill:url(#Degradado_sin_nombre_1533);}.cls-9{opacity:0.4;}.cls-10,.cls-13{fill:#fff;}.cls-12,.cls-14{stroke:#fff;stroke-miterlimit:10;stroke-width:0.71px;}</style><linearGradient id="Degradado_sin_nombre_23" x1="282.09" y1="375.67" x2="282.09" gradientUnits="userSpaceOnUse"><stop offset="0" stop-color="#097ff5"/><stop offset="0.28" stop-color="#1687f7"/><stop offset="0.8" stop-color="#399afd"/><stop offset="1" stop-color="#48a3ff"/></linearGradient><clipPath id="clip-path" transform="translate(126.33 168.8)"><rect class="cls-1" width="564.18" height="375.67"/></clipPath><linearGradient id="Degradado_sin_nombre_25" x1="240.67" y1="289.78" x2="253.77" y2="439.5" gradientUnits="userSpaceOnUse"><stop offset="0" stop-color="#2390ff"/><stop offset="0.05" stop-color="#2390ff" stop-opacity="0.93"/><stop offset="0.3" stop-color="#2390ff" stop-opacity="0.6"/><stop offset="0.52" stop-color="#2390ff" stop-opacity="0.35"/><stop offset="0.7" stop-color="#2390ff" stop-opacity="0.16"/><stop offset="0.84" stop-color="#2390ff" stop-opacity="0.04"/><stop offset="0.91" stop-color="#2390ff" stop-opacity="0"/></linearGradient><linearGradient id="Degradado_sin_nombre_24" x1="250.02" y1="429.89" x2="250.02" y2="316.85" gradientUnits="userSpaceOnUse"><stop offset="0.09" stop-color="#2390ff" stop-opacity="0"/><stop offset="0.16" stop-color="#2390ff" stop-opacity="0.04"/><stop offset="0.3" stop-color="#2390ff" stop-opacity="0.16"/><stop offset="0.48" stop-color="#2390ff" stop-opacity="0.35"/><stop offset="0.7" stop-color="#2390ff" stop-opacity="0.6"/><stop offset="0.95" stop-color="#2390ff" stop-opacity="0.93"/><stop offset="1" stop-color="#2390ff"/></linearGradient><linearGradient id="Degradado_sin_nombre_1532" x1="10593.82" y1="-5211.54" x2="10593.82" y2="-5356.85" gradientTransform="translate(10843.84 -5253.76) rotate(180)" gradientUnits="userSpaceOnUse"><stop offset="0.04" stop-color="#fff" stop-opacity="0"/><stop offset="0.16" stop-color="#fff" stop-opacity="0.02"/><stop offset="0.28" stop-color="#fff" stop-opacity="0.06"/><stop offset="0.4" stop-color="#fff" stop-opacity="0.14"/><stop offset="0.52" stop-color="#fff" stop-opacity="0.24"/><stop offset="0.63" stop-color="#fff" stop-opacity="0.38"/><stop offset="0.75" stop-color="#fff" stop-opacity="0.55"/><stop offset="0.86" stop-color="#fff" stop-opacity="0.75"/><stop offset="0.98" stop-color="#fff" stop-opacity="0.98"/><stop offset="0.99" stop-color="#fff"/></linearGradient><linearGradient id="Degradado_sin_nombre_1533" x1="329.2" y1="-5244.83" x2="329.2" y2="-5330.54" gradientTransform="matrix(1, 0, 0, -1, 0, -5253.76)" gradientUnits="userSpaceOnUse"><stop offset="0" stop-color="#fff" stop-opacity="0"/><stop offset="0.13" stop-color="#fff" stop-opacity="0.02"/><stop offset="0.25" stop-color="#fff" stop-opacity="0.06"/><stop offset="0.38" stop-color="#fff" stop-opacity="0.14"/><stop offset="0.5" stop-color="#fff" stop-opacity="0.24"/><stop offset="0.62" stop-color="#fff" stop-opacity="0.38"/><stop offset="0.74" stop-color="#fff" stop-opacity="0.55"/><stop offset="0.86" stop-color="#fff" stop-opacity="0.75"/><stop offset="0.98" stop-color="#fff" stop-opacity="0.98"/><stop offset="0.99" stop-color="#fff"/></linearGradient></defs><g class="cls-2"><g id="Layer_2" data-name="Layer 2"><g id="OBJECTS"><rect class="cls-1" x="126.33" y="168.8" width="564.18" height="375.67"/><g class="cls-3"><rect class="cls-4" x="126.33" y="168.8" width="564.18" height="375.67"/><path class="cls-5" d="M-126.33,334.28C-99.91,320.53-56.5,311.79-16,316c27.91,2.87,52.76,9.68,78.26,15.45s53.58,10.69,82.05,9.29c62.31-3.07,101.54-34.34,163.26-39.24,65.66-5.21,134,21.31,195.27,9.6,44.24-8.45,66.17-34.4,113.67-38V407.77H-126.33Z" transform="translate(126.33 168.8)"/><path class="cls-6" d="M-68.45,344.34c34.22,3,53.19-.09,81.62-8.32,19.09-5.52,35.2-13.39,58-15.77,27.8-2.91,56.52,3.37,77.94,11.06s39.6,17.11,64.77,22.67c52.27,11.55,119.19,2.89,166.29-11.81,20.38-6.37,38.8-13.82,61-19.11s49.78-8.24,74-4.6c19.87,3,34.49,9.93,53.43,13.78v97.65H-68.45Z" transform="translate(126.33 168.8)"/><path class="cls-7" d="M568.49,48.53c-34.22-6-53.18.17-81.62,16.5-19.09,11-35.2,26.58-58,31.31-27.79,5.78-56.51-6.69-77.94-22s-39.6-34-64.77-45C233.93,6.46,167,23.64,119.91,52.83c-20.38,12.63-38.8,27.43-61,37.93S9.14,107.11-15,99.89C-34.9,94-49.51,80.18-68.45,72.55V-42.22H568.49Z" transform="translate(126.33 168.8)"/><path class="cls-8" d="M-31.85,34.49c38.79-4.63,60.3.14,92.53,12.79,21.65,8.5,39.91,20.6,65.71,24.27,31.52,4.48,64.08-5.19,88.37-17s44.89-26.34,73.43-34.89C347.44,1.89,423.32,15.2,476.71,37.83c23.1,9.79,44,21.25,69.14,29.4S602.3,79.9,629.69,74.3c22.53-4.61,39.1-15.27,60.57-21.19v-62H-31.85Z" transform="translate(126.33 168.8)"/><g class="cls-9"><path class="cls-10" d="M92.84,75.18a3.28,3.28,0,1,1-3.28-3.28A3.28,3.28,0,0,1,92.84,75.18Z" transform="translate(126.33 168.8)"/><path class="cls-10" d="M333.86,392.24a3.28,3.28,0,1,1-3.28-3.28A3.28,3.28,0,0,1,333.86,392.24Z" transform="translate(126.33 168.8)"/><path class="cls-10" d="M113.54,480.06a1.68,1.68,0,1,1-1.67-1.67A1.68,1.68,0,0,1,113.54,480.06Z" transform="translate(126.33 168.8)"/><circle class="cls-10" cx="519.28" cy="557" r="3.59"/><path class="cls-10" d="M132.19,453.4a4.13,4.13,0,1,1-4.12-4.12A4.12,4.12,0,0,1,132.19,453.4Z" transform="translate(126.33 168.8)"/><path class="cls-10" d="M96.9,52.78a2,2,0,1,1-2-2A2,2,0,0,1,96.9,52.78Z" transform="translate(126.33 168.8)"/><path class="cls-10" d="M385,417.63a2,2,0,1,1-2-2A2,2,0,0,1,385,417.63Z" transform="translate(126.33 168.8)"/><circle class="cls-10" cx="177.47" cy="233.69" r="1.18"/><path class="cls-10" d="M427,282.88a1.18,1.18,0,1,1-1.18-1.18A1.18,1.18,0,0,1,427,282.88Z" transform="translate(126.33 168.8)"/><path class="cls-10" d="M169.29,420.54a1.15,1.15,0,1,1-1.15-1.15A1.15,1.15,0,0,1,169.29,420.54Z" transform="translate(126.33 168.8)"/><path class="cls-10" d="M62,399.58a2.43,2.43,0,1,1-2.43-2.43A2.42,2.42,0,0,1,62,399.58Z" transform="translate(126.33 168.8)"/><circle class="cls-10" cx="522.32" cy="484.41" r="1.18"/></g><g class="cls-11"><line class="cls-12" x1="83.32" y1="583.65" x2="268.99" y2="397.98"/><path class="cls-10" d="M-39.84,417.73a4.28,4.28,0,0,1-6,0,4.28,4.28,0,0,1,0-6.05,4.28,4.28,0,0,1,6,0A4.26,4.26,0,0,1-39.84,417.73Z" transform="translate(126.33 168.8)"/><path class="cls-10" d="M145.53,232.36a4.28,4.28,0,1,0-6.05,0A4.28,4.28,0,0,0,145.53,232.36Z" transform="translate(126.33 168.8)"/></g><g class="cls-11"><line class="cls-12" x1="517.22" y1="324.51" x2="668.09" y2="173.64"/><path class="cls-10" d="M394.06,158.59a4.28,4.28,0,1,1,0-6.05A4.28,4.28,0,0,1,394.06,158.59Z" transform="translate(126.33 168.8)"/><path class="cls-10" d="M544.63,8a4.28,4.28,0,1,0-6,0A4.28,4.28,0,0,0,544.63,8Z" transform="translate(126.33 168.8)"/></g><g class="cls-11"><line class="cls-12" x1="472.32" y1="579.6" x2="623.19" y2="428.73"/><path class="cls-10" d="M349.16,413.68a4.28,4.28,0,1,1,0-6.05A4.28,4.28,0,0,1,349.16,413.68Z" transform="translate(126.33 168.8)"/><path class="cls-10" d="M499.73,263.11a4.28,4.28,0,1,0-6.05,0A4.28,4.28,0,0,0,499.73,263.11Z" transform="translate(126.33 168.8)"/></g><g class="cls-11"><line class="cls-12" x1="497.86" y1="600.47" x2="648.74" y2="449.59"/><path class="cls-10" d="M374.71,434.55a4.28,4.28,0,1,1,0-6.05A4.28,4.28,0,0,1,374.71,434.55Z" transform="translate(126.33 168.8)"/><path class="cls-10" d="M525.28,284a4.28,4.28,0,1,0-6,0A4.29,4.29,0,0,0,525.28,284Z" transform="translate(126.33 168.8)"/></g><g class="cls-11"><line class="cls-12" x1="260.15" y1="311.17" x2="492.12" y2="79.2"/><path class="cls-10" d="M137,145.25a4.28,4.28,0,1,1,0-6.05A4.28,4.28,0,0,1,137,145.25Z" transform="translate(126.33 168.8)"/><path class="cls-10" d="M368.66-86.42a4.28,4.28,0,0,0,0-6,4.29,4.29,0,0,0-6.06,0,4.28,4.28,0,0,0,0,6A4.29,4.29,0,0,0,368.66-86.42Z" transform="translate(126.33 168.8)"/></g><g class="cls-11"><line class="cls-12" x1="364.42" y1="236.1" x2="596.39" y2="4.13"/><path class="cls-10" d="M241.26,70.17a4.28,4.28,0,1,1,0-6A4.26,4.26,0,0,1,241.26,70.17Z" transform="translate(126.33 168.8)"/><path class="cls-10" d="M472.93-161.49a4.28,4.28,0,0,0,0-6,4.28,4.28,0,0,0-6.05,0,4.28,4.28,0,0,0,0,6A4.28,4.28,0,0,0,472.93-161.49Z" transform="translate(126.33 168.8)"/></g><g class="cls-11"><line class="cls-12" x1="115.22" y1="602.61" x2="249.81" y2="468.02"/><path class="cls-10" d="M-7.94,436.69a4.28,4.28,0,0,1-6,0,4.28,4.28,0,0,1,0-6.05,4.28,4.28,0,0,1,6.05,0A4.28,4.28,0,0,1-7.94,436.69Z" transform="translate(126.33 168.8)"/><path class="cls-10" d="M126.35,302.4a4.28,4.28,0,1,0-6,0A4.28,4.28,0,0,0,126.35,302.4Z" transform="translate(126.33 168.8)"/></g><path class="cls-13" d="M364.08,296.35a10,10,0,1,1-10-10A10,10,0,0,1,364.08,296.35Z" transform="translate(126.33 168.8)"/><circle class="cls-14" cx="480.41" cy="465.15" r="19.68"/><circle class="cls-13" cx="191.71" cy="286.17" r="10.01"/><circle class="cls-14" cx="191.71" cy="286.17" r="19.68"/><path class="cls-13" d="M382.07,13.72a14.24,14.24,0,0,1-19.28-5.78,14.23,14.23,0,1,1,19.28,5.78Z" transform="translate(126.33 168.8)"/><circle class="cls-14" cx="375.32" cy="1.19" r="21.52" transform="matrix(0.16, -0.99, 0.99, 0.16, 441.81, 540.51)"/></g></g></g></g></svg>